<svg id="Layer_1" xmlns="http://www.w3.org/2000/svg" viewBox="0 0 270 270"><style>.st0{fill:#0A6673;}</style><path class="st0" d="M232.3 74.6l-9.3-2.3c-4.2-1-5-6.6-1.3-8.8l7.8-4.7c2.1-1.3 2.8-4 1.5-6.1l-8.7-14.5c-1.3-2.1-4-2.8-6.1-1.5l-8.2 4.9c-3.7 2.2-8.2-1.1-7.2-5.3l2.2-8.8c.6-2.4-.8-4.8-3.2-5.4L183.3 18c-2.4-.6-4.8.8-5.4 3.2l-2.3 9.3c-1 4.2-6.6 5-8.8 1.3l-4.7-7.8c-1.3-2.1-4-2.8-6.1-1.5l-14.5 8.7c-2.1 1.3-2.8 4-1.5 6.1l4.9 8.2c2.2 3.7-1.1 8.2-5.3 7.2l-8.8-2.2c-2.4-.6-4.8.8-5.4 3.2l-4.1 16.4c-.6 2.4.8 4.8 3.2 5.4l9.3 2.3c4.2 1 5 6.6 1.3 8.8l-7.8 4.7c-2.1 1.3-2.8 4-1.5 6.1l8.7 14.5c1.3 2.1 4 2.8 6.1 1.5l8.2-4.9c3.7-2.2 8.2 1.1 7.2 5.3l-2.2 8.8c-.6 2.4.8 4.8 3.2 5.4l16.4 4.1c2.4.6 4.8-.8 5.4-3.2l2.3-9.3c1-4.2 6.6-5 8.8-1.3l4.7 7.8c1.3 2.1 4 2.8 6.1 1.5l14.5-8.7c2.1-1.3 2.8-4 1.5-6.1l-4.9-8.2c-2.2-3.7 1.1-8.2 5.3-7.2l8.8 2.2c2.4.6 4.8-.8 5.4-3.2l4.1-16.4c.7-2.4-.7-4.8-3.1-5.4zm-58.6 19.6c-10.5-2.6-16.9-13.2-14.3-23.8 2.6-10.5 13.2-16.9 23.8-14.3 10.5 2.6 16.9 13.2 14.3 23.8-2.6 10.5-13.2 16.9-23.8 14.3zm-4.1 86.4l-11.5-2.9c-5.2-1.3-6.2-8.2-1.6-11l9.7-5.8c2.6-1.6 3.5-4.9 1.9-7.6l-10.8-18c-1.6-2.6-4.9-3.5-7.6-1.9l-10.2 6.1c-4.6 2.8-10.2-1.4-8.9-6.6l2.7-11c.7-3-1.1-5.9-4-6.7l-20.4-5.1c-3-.7-5.9 1.1-6.7 4l-2.9 11.5c-1.3 5.2-8.2 6.2-11 1.6l-5.8-9.7c-1.6-2.6-4.9-3.5-7.6-1.9l-18 10.8c-2.6 1.6-3.5 4.9-1.9 7.6l6.1 10.2c2.8 4.6-1.4 10.2-6.6 8.9l-11-2.7c-3-.7-5.9 1.1-6.7 4l-5.1 20.4c-.7 3 1.1 5.9 4 6.7l11.5 2.9c5.2 1.3 6.2 8.2 1.6 11l-9.7 5.8c-2.6 1.6-3.5 4.9-1.9 7.6l10.8 18c1.6 2.6 4.9 3.5 7.6 1.9l10.2-6.1c4.6-2.8 10.2 1.4 8.9 6.6l-2.7 11c-.7 3 1.1 5.9 4 6.7l20.4 5.1c3 .7 5.9-1.1 6.7-4l2.9-11.5c1.3-5.2 8.2-6.2 11-1.6l5.8 9.7c1.6 2.6 4.9 3.5 7.6 1.9l18-10.8c2.6-1.6 3.5-4.9 1.9-7.6l-6.1-10.2c-2.8-4.6 1.4-10.2 6.6-8.9l11 2.7c3 .7 5.9-1.1 6.7-4l5.1-20.4c.8-3-1-6-4-6.7zm-72.7 24.3c-13.1-3.2-21-16.4-17.8-29.5s16.4-21 29.5-17.8 21 16.4 17.8 29.5-16.4 21-29.5 17.8z"/><path class="st0" d="M120.4 75.9l-5.9-1.5c-2.7-.7-3.2-4.2-.8-5.7l5-3c1.4-.8 1.8-2.5 1-3.9l-5.6-9.3c-.8-1.3-2.5-1.8-3.9-1l-5.3 3.2c-2.4 1.4-5.3-.7-4.6-3.4l1.4-5.7c.4-1.5-.5-3.1-2.1-3.4L89 39.7c-1.5-.4-3.1.5-3.4 2.1l-1.5 5.9c-.7 2.7-4.2 3.2-5.7.8l-3-5c-.8-1.4-2.5-1.8-3.9-1l-9.3 5.6c-1.3.8-1.8 2.5-1 3.9l3.2 5.3c1.4 2.4-.7 5.3-3.4 4.6l-5.7-1.4c-1.5-.4-3.1.5-3.4 2.1l-2.6 10.5c-.4 1.5.5 3.1 2.1 3.4l5.9 1.5c2.7.7 3.2 4.2.8 5.7l-5 3c-1.4.8-1.8 2.5-1 3.9l5.6 9.3c.8 1.3 2.5 1.8 3.9 1l5.3-3.2c2.4-1.4 5.3.7 4.6 3.4l-1.4 5.7c-.4 1.5.5 3.1 2.1 3.4l10.5 2.6c1.5.4 3.1-.5 3.4-2.1l1.5-5.9c.7-2.7 4.2-3.2 5.7-.8l3 5c.8 1.4 2.5 1.8 3.9 1l9.3-5.6c1.3-.8 1.8-2.5 1-3.9l-3.2-5.3c-1.4-2.4.7-5.3 3.4-4.6l5.7 1.4c1.5.4 3.1-.5 3.4-2.1l2.6-10.5c.4-1.6-.5-3.1-2-3.5zM82.9 88.4C76.1 86.8 72 80 73.7 73.2c1.7-6.7 8.5-10.8 15.2-9.2 6.7 1.7 10.8 8.5 9.2 15.2-1.7 6.8-8.5 10.9-15.2 9.2zM238 160.8l-5.4-1.2c-2.4-.6-3-3.8-.9-5.1l4.4-2.8c1.2-.8 1.6-2.3.8-3.5l-5.2-8.3c-.8-1.2-2.3-1.6-3.5-.8l-4.7 2.9c-2.1 1.3-4.8-.6-4.2-3l1.2-5.1c.3-1.4-.5-2.8-1.9-3.1l-9.5-2.2c-1.4-.3-2.8.5-3.1 1.9l-1.2 5.4c-.6 2.4-3.8 3-5.1.9l-2.8-4.4c-.8-1.2-2.3-1.6-3.5-.8l-8.3 5.2c-1.2.8-1.6 2.3-.8 3.5l2.9 4.7c1.3 2.1-.6 4.8-3 4.2l-5.1-1.2c-1.4-.3-2.8.5-3.1 1.9l-2.2 9.5c-.3 1.4.5 2.8 1.9 3.1l5.4 1.2c2.4.6 3 3.8.9 5.1l-4.4 2.8c-1.2.8-1.6 2.3-.8 3.5l5.2 8.3c.8 1.2 2.3 1.6 3.5.8l4.7-2.9c2.1-1.3 4.8.6 4.2 3l-1.2 5.1c-.3 1.4.5 2.8 1.9 3.1l9.5 2.2c1.4.3 2.8-.5 3.1-1.9l1.2-5.4c.6-2.4 3.8-3 5.1-.9l2.8 4.4c.8 1.2 2.3 1.6 3.5.8l8.3-5.2c1.2-.8 1.6-2.3.8-3.5l-2.9-4.7c-1.3-2.1.6-4.8 3-4.2l5.1 1.2c1.4.3 2.8-.5 3.1-1.9l2.2-9.5c.3-1.4-.5-2.8-1.9-3.1zm-33.6 11.9c-6.1-1.4-9.9-7.5-8.5-13.6s7.5-9.9 13.6-8.5 9.9 7.5 8.5 13.6c-1.5 6.1-7.5 9.9-13.6 8.5z"/></svg>